<mxfile host="app.diagrams.net" modified="2022-10-11T08:17:15.525Z" agent="5.0 (Windows NT 6.1; Win64; x64) AppleWebKit/537.36 (KHTML, like Gecko) Chrome/106.0.0.0 Safari/537.36 Edg/106.0.1370.37" etag="cGzlXvTNYj1EiQyak3I_" version="20.4.0" type="github">
  <diagram id="-WDrQpm04mG6wxkNXUL_" name="第 1 页">
    <mxGraphModel dx="942" dy="582" grid="1" gridSize="10" guides="1" tooltips="1" connect="1" arrows="1" fold="1" page="1" pageScale="1" pageWidth="827" pageHeight="1169" math="0" shadow="0">
      <root>
        <mxCell id="0" />
        <mxCell id="1" parent="0" />
        <mxCell id="GKZPm_HTWxjroD0qQNYb-16" value="" style="group" vertex="1" connectable="0" parent="1">
          <mxGeometry x="120" y="170" width="240" height="270" as="geometry" />
        </mxCell>
        <mxCell id="GKZPm_HTWxjroD0qQNYb-17" value="" style="group" vertex="1" connectable="0" parent="GKZPm_HTWxjroD0qQNYb-16">
          <mxGeometry width="240" height="260" as="geometry" />
        </mxCell>
        <mxCell id="GKZPm_HTWxjroD0qQNYb-4" value="&lt;pre style=&quot;&quot;&gt;&lt;br&gt;&lt;/pre&gt;" style="html=1;align=left;" vertex="1" parent="GKZPm_HTWxjroD0qQNYb-17">
          <mxGeometry width="240" height="260" as="geometry" />
        </mxCell>
        <mxCell id="GKZPm_HTWxjroD0qQNYb-15" value="agent" style="text;html=1;strokeColor=none;fillColor=none;align=center;verticalAlign=middle;whiteSpace=wrap;rounded=0;fontFamily=Times New Roman;" vertex="1" parent="GKZPm_HTWxjroD0qQNYb-17">
          <mxGeometry width="60" height="30" as="geometry" />
        </mxCell>
        <mxCell id="GKZPm_HTWxjroD0qQNYb-1" value="强化学习" style="text;html=1;strokeColor=none;fillColor=none;align=center;verticalAlign=middle;whiteSpace=wrap;rounded=0;" vertex="1" parent="1">
          <mxGeometry x="110" y="60" width="60" height="30" as="geometry" />
        </mxCell>
        <mxCell id="GKZPm_HTWxjroD0qQNYb-6" style="edgeStyle=orthogonalEdgeStyle;rounded=0;orthogonalLoop=1;jettySize=auto;html=1;entryX=0.5;entryY=0;entryDx=0;entryDy=0;" edge="1" parent="1" source="GKZPm_HTWxjroD0qQNYb-4" target="GKZPm_HTWxjroD0qQNYb-5">
          <mxGeometry relative="1" as="geometry">
            <Array as="points">
              <mxPoint x="230" y="120" />
              <mxPoint x="490" y="120" />
            </Array>
          </mxGeometry>
        </mxCell>
        <mxCell id="GKZPm_HTWxjroD0qQNYb-7" value="action" style="edgeLabel;html=1;align=center;verticalAlign=middle;resizable=0;points=[];" vertex="1" connectable="0" parent="GKZPm_HTWxjroD0qQNYb-6">
          <mxGeometry x="0.0727" y="2" relative="1" as="geometry">
            <mxPoint x="-12" as="offset" />
          </mxGeometry>
        </mxCell>
        <mxCell id="GKZPm_HTWxjroD0qQNYb-8" style="edgeStyle=orthogonalEdgeStyle;rounded=0;orthogonalLoop=1;jettySize=auto;html=1;entryX=0.5;entryY=1;entryDx=0;entryDy=0;" edge="1" parent="1" source="GKZPm_HTWxjroD0qQNYb-5" target="GKZPm_HTWxjroD0qQNYb-4">
          <mxGeometry relative="1" as="geometry">
            <Array as="points">
              <mxPoint x="505" y="530" />
              <mxPoint x="240" y="530" />
            </Array>
          </mxGeometry>
        </mxCell>
        <mxCell id="GKZPm_HTWxjroD0qQNYb-9" value="reward" style="edgeLabel;html=1;align=center;verticalAlign=middle;resizable=0;points=[];" vertex="1" connectable="0" parent="GKZPm_HTWxjroD0qQNYb-8">
          <mxGeometry x="-0.2242" y="3" relative="1" as="geometry">
            <mxPoint x="-44" y="-3" as="offset" />
          </mxGeometry>
        </mxCell>
        <mxCell id="GKZPm_HTWxjroD0qQNYb-13" value="策略π" style="rounded=0;whiteSpace=wrap;html=1;" vertex="1" parent="1">
          <mxGeometry x="180" y="230" width="120" height="60" as="geometry" />
        </mxCell>
        <mxCell id="GKZPm_HTWxjroD0qQNYb-14" value="价值value" style="rounded=0;whiteSpace=wrap;html=1;" vertex="1" parent="1">
          <mxGeometry x="180" y="370" width="120" height="60" as="geometry" />
        </mxCell>
        <mxCell id="GKZPm_HTWxjroD0qQNYb-19" value="" style="group" vertex="1" connectable="0" parent="1">
          <mxGeometry x="370" y="170" width="240" height="260" as="geometry" />
        </mxCell>
        <mxCell id="GKZPm_HTWxjroD0qQNYb-5" value="" style="html=1;" vertex="1" parent="GKZPm_HTWxjroD0qQNYb-19">
          <mxGeometry width="240" height="260" as="geometry" />
        </mxCell>
        <mxCell id="GKZPm_HTWxjroD0qQNYb-18" value="&lt;span style=&quot;font-family: Helvetica;&quot;&gt;environment&lt;/span&gt;" style="text;html=1;strokeColor=none;fillColor=none;align=center;verticalAlign=middle;whiteSpace=wrap;rounded=0;fontFamily=Times New Roman;" vertex="1" parent="GKZPm_HTWxjroD0qQNYb-19">
          <mxGeometry x="14" width="60" height="30" as="geometry" />
        </mxCell>
      </root>
    </mxGraphModel>
  </diagram>
</mxfile>
